<?xml version="1.0" encoding="UTF-8"?>
<svg id="Layer_2" data-name="Layer 2" xmlns="http://www.w3.org/2000/svg" viewBox="0 0 195.3 162.09">
  <defs>
    <style>
      .cls-1 {
        fill: #ed1c24;
        stroke-width: 0px;
      }
    </style>
  </defs>
  <g id="Layer_1-2" data-name="Layer 1">
    <path class="cls-1" d="M181.41,153.06c3.45-4.13,5.53-9.44,5.53-15.23.04-13.61-11.56-24.54-25.13-23.8-4.74,0-9.14-2.53-11.52-6.66-2.45-4.26-2.35-9.53.26-13.7,9.95-15.56-1.71-36.59-20.2-36.43-5.16.4-10.21-2.09-12.79-6.63-2.45-4.26-2.36-9.52.25-13.69,2.36-3.77,3.6-8.12,3.6-12.58-.26-6.39-2.32-11.5-5.44-15.3h13.81V0h-64.27v9.03h13.81c-3.12,3.81-5.18,8.91-5.44,15.3,0,4.46,1.25,8.81,3.6,12.58,2.61,4.17,2.7,9.43.25,13.69-2.58,4.55-7.63,7.03-12.79,6.63-18.49-.16-30.15,20.87-20.2,36.43,2.62,4.17,2.72,9.44.26,13.7-2.38,4.13-6.78,6.66-11.52,6.66-13.57-.74-25.17,10.19-25.13,23.8,0,5.79,2.08,11.1,5.53,15.23H0v9.03h64.27v-9.03h-13.79c3.45-4.13,5.53-9.44,5.53-15.23,0-4.47-1.25-8.83-3.62-12.61-2.62-4.17-2.72-9.44-.26-13.7,2.59-4.56,7.66-7.04,12.83-6.64,8.81,0,16.87-4.85,21.04-12.67,2.3-4.31,6.78-7.01,11.66-7.03,4.88.02,9.36,2.72,11.66,7.03,4.17,7.81,12.23,12.67,21.04,12.67,5.17-.4,10.24,2.08,12.83,6.64,2.45,4.26,2.35,9.53-.26,13.7-2.37,3.77-3.62,8.13-3.62,12.61,0,5.79,2.08,11.1,5.53,15.23h-13.79v9.03h64.27v-9.03h-13.89ZM109.78,69.24c-.29.45-.58.91-.87,1.36-2.7,4.29-6.97,6.35-11.25,6.33-4.28.01-8.55-2.04-11.25-6.33-.29-.46-.58-.91-.87-1.36-5.87-9.03-.23-20.9,10.9-21.1.41-.03,2.04-.03,2.45,0,11.12.2,16.77,12.07,10.9,21.1Z"/>
  </g>
</svg>